<svg xmlns="http://www.w3.org/2000/svg" version="1.1" xmlns:xlink="http://www.w3.org/1999/xlink" xmlns:svgjs="http://svgjs.dev/svgjs" viewBox="0 0 800 800"><defs><linearGradient x1="50%" y1="0%" x2="50%" y2="100%" id="nnneon-grad"><stop stop-color="#6200ea" stop-opacity="1" offset="0%"></stop><stop stop-color="hsl(331, 87%, 61%)" stop-opacity="1" offset="100%"></stop></linearGradient><filter id="nnneon-filter" x="-100%" y="-100%" width="400%" height="400%" filterUnits="objectBoundingBox" primitiveUnits="userSpaceOnUse" color-interpolation-filters="sRGB">
	<feGaussianBlur stdDeviation="14 14" x="0%" y="0%" width="100%" height="100%" in="SourceGraphic" edgeMode="none" result="blur"></feGaussianBlur></filter><filter id="nnneon-filter2" x="-100%" y="-100%" width="400%" height="400%" filterUnits="objectBoundingBox" primitiveUnits="userSpaceOnUse" color-interpolation-filters="sRGB">
	<feGaussianBlur stdDeviation="40 40" x="0%" y="0%" width="100%" height="100%" in="SourceGraphic" edgeMode="none" result="blur"></feGaussianBlur></filter></defs><g stroke-width="21" stroke="url(#nnneon-grad)" fill="none"><path d="M400.0000305175781 71.4881591796875L684.5000486969445 235.74408173366953V564.2559268416337L400.0000305175781 728.5118493956156L115.50001233821172 564.2559268416337V235.74408173366953L400.0000305175781 71.4881591796875Z " filter="url(#nnneon-filter)"></path><path d="M400.0000305175781 71.4881591796875L684.5000486969445 235.74408173366953V564.2559268416337L400.0000305175781 728.5118493956156L115.50001233821172 564.2559268416337V235.74408173366953L400.0000305175781 71.4881591796875Z " filter="url(#nnneon-filter2)" opacity="0.68"></path><path d="M400.0000305175781 71.4881591796875L684.5000486969445 235.74408173366953V564.2559268416337L400.0000305175781 728.5118493956156L115.50001233821172 564.2559268416337V235.74408173366953L400.0000305175781 71.4881591796875Z " filter="url(#nnneon-filter2)" opacity="0.68"></path><path d="M400.0000305175781 71.4881591796875L684.5000486969445 235.74408173366953V564.2559268416337L400.0000305175781 728.5118493956156L115.50001233821172 564.2559268416337V235.74408173366953L400.0000305175781 71.4881591796875Z "></path></g></svg>